<?xml version="1.0"?>
<svg xmlns:xlink="http://www.w3.org/1999/xlink" xmlns="http://www.w3.org/2000/svg" xml:space="preserve" enable-background="new 0 0 298 293.334" viewBox="0 0 298 293.334" height="293.334px" width="298px" y="0px" x="0px" id="Capa_1" version="1.1" data-global-elvn="enableViewport, enableClick, none, startVisible, notResponsive, 0, notLoop, 500">
	
<g data-elvn="drawLines, 100, 2000, #14468e, 18, notRandom" class="elvn-layer" id="fondo">
	<circle fill="#F2F3F3" stroke="#15468E" stroke-width="18" cx="148.315" cy="148.776" r="124"/>
</g>
<g data-elvn="drawLines, 850, 2000, #000000, 1, notRandom" class="elvn-layer" id="tutti">
	<polygon points="71.333,147 80.333,147 80.333,120 92.333,120 92.333,112 58.333,112 58.333,120 71.333,120  "/>
	<rect x="129.333" y="112" width="11" height="35"/>
	<rect x="214.333" y="112" width="9" height="35"/>
	<polygon points="156.333,147 166.333,147 166.333,120 175.478,120 177.938,120 188.333,120 188.333,147 197.333,147 197.333,120    209.333,120 209.333,112 177.938,112 175.478,112 143.333,112 143.333,120 156.333,120  "/>
	<rect x="96.333" y="112" width="9" height="35"/>
	<rect x="71.333" y="165" width="9" height="21"/>
	<rect x="188.333" y="165" width="9" height="21"/>
	<rect x="214.333" y="165" width="9" height="21"/>
	<rect x="156.333" y="165" width="10" height="21"/>
	<path d="M130.308,165c-0.009,4-0.482,5.377-1.438,7.173c-0.967,1.816-2.104,3.236-3.422,4.202   c-1.316,0.967-2.662,1.626-4.037,1.948c-1.376,0.323-2.502,0.49-3.38,0.49c-0.879,0-2.021-0.157-3.426-0.479   c-1.405-0.321-2.766-0.964-4.084-1.93c-1.317-0.967-2.459-2.417-3.395-4.232c-0.929-1.796-1.409-3.172-1.419-7.172h-9.375v0.294   c0,3.689,0.542,6.896,1.716,9.619c1.169,2.723,2.759,5.081,4.81,7.071c2.047,1.699,4.336,3.046,6.883,4.041   c2.549,0.995,5.31,1.493,8.297,1.493c2.986,0,5.749-0.498,8.297-1.493c2.547-0.995,4.845-2.342,6.895-4.041   c2.05-1.99,3.916-4.348,5.088-7.071s2.016-5.929,2.016-9.619V165H130.308z"/>
</g>
<g data-elvn="scaleC, in, 2100, 1500, linear" class="elvn-layer" id="creative">
	<path fill="#17498E" d="M72.81,152.225c-0.115-0.129-0.294-0.32-0.538-0.571c-0.245-0.251-0.55-0.502-0.915-0.754   c-0.367-0.251-0.803-0.466-1.305-0.646c-0.503-0.18-1.078-0.27-1.725-0.27c-0.834,0-1.609,0.162-2.328,0.485   c-0.718,0.323-1.344,0.758-1.875,1.304c-0.531,0.546-0.953,1.193-1.261,1.94c-0.31,0.748-0.463,1.538-0.463,2.371   c0,0.862,0.162,1.667,0.483,2.414c0.324,0.748,0.755,1.401,1.295,1.962c0.538,0.56,1.163,1.002,1.874,1.325   c0.712,0.323,1.456,0.485,2.231,0.485c0.848,0,1.648-0.19,2.404-0.571c0.754-0.381,1.402-0.895,1.949-1.541h2.867   c-0.446,0.776-0.957,1.437-1.53,1.982c-0.576,0.546-1.183,0.984-1.821,1.315c-0.64,0.331-1.293,0.571-1.962,0.722   c-0.668,0.15-1.312,0.226-1.929,0.226c-1.136,0-2.199-0.223-3.189-0.668c-0.992-0.444-1.857-1.048-2.598-1.811   c-0.74-0.761-1.326-1.645-1.756-2.65c-0.433-1.006-0.647-2.077-0.647-3.212c0-1.164,0.219-2.245,0.657-3.244   c0.438-0.999,1.03-1.868,1.778-2.608c0.747-0.74,1.616-1.318,2.608-1.735c0.991-0.417,2.047-0.625,3.168-0.625   c0.302,0,0.643,0.021,1.023,0.064c0.38,0.043,0.787,0.123,1.218,0.237c0.432,0.115,0.869,0.273,1.314,0.475   c0.445,0.201,0.884,0.46,1.314,0.776c0.719,0.517,1.259,1.027,1.617,1.53c0.358,0.504,0.64,0.935,0.84,1.293H72.81z"/>
	<path fill="#17498E" d="M84.492,164.101l-5.259-7.393h-0.044v7.393h-2.327v-15.95h4.936c1.121,0,2.004,0.123,2.651,0.367   c0.647,0.245,1.178,0.568,1.595,0.97c0.502,0.489,0.873,1.071,1.109,1.746c0.237,0.676,0.357,1.351,0.357,2.026   c0,1.063-0.191,1.915-0.572,2.554c-0.38,0.64-0.822,1.131-1.326,1.476c-0.502,0.345-1.009,0.575-1.52,0.69   c-0.51,0.114-0.895,0.172-1.152,0.172l4.461,5.949H84.492z M79.189,156.385h1.596c0.158,0,0.377-0.007,0.657-0.021   c0.279-0.014,0.582-0.05,0.905-0.107c0.323-0.057,0.653-0.151,0.991-0.28c0.338-0.13,0.644-0.31,0.916-0.54   c0.273-0.229,0.496-0.521,0.669-0.873c0.173-0.352,0.259-0.787,0.259-1.304c0-0.331-0.062-0.671-0.184-1.023   c-0.123-0.353-0.324-0.672-0.604-0.96c-0.279-0.287-0.644-0.524-1.088-0.71c-0.446-0.187-0.998-0.281-1.659-0.281h-2.458V156.385z"/>
	<path fill="#17498E" d="M89.019,164.101v-15.95h8.6v2.134h-6.272v4.699h6.272v2.134h-6.272v4.849h6.272v2.134H89.019z"/>
	<path fill="#17498E" d="M110.184,164.101l-1.768-4.699h-5.733l-1.768,4.699h-2.457l6.058-15.95h2.091l6.056,15.95H110.184z    M107.618,157.269l-2.025-6.1h-0.043l-2.047,6.1H107.618z"/>
	<path fill="#17498E" d="M114.946,164.101v-13.816h-3.061v-2.134h8.449v2.134h-3.061v13.816H114.946z"/>
	<path fill="#17498E" d="M121.478,164.101v-15.95h2.327v15.95H121.478z"/>
	<path fill="#17498E" d="M131.435,164.101l-6.422-15.95h2.5l4.634,11.962l4.633-11.962h2.459l-6.402,15.95H131.435z"/>
	<path fill="#17498E" d="M140.25,164.101v-15.95h8.601v2.134h-6.272v4.699h6.272v2.134h-6.272v4.849h6.272v2.134H140.25z"/>
	<path fill="#CC2327" d="M156.135,148.151h5.173c0.833,0,1.584,0.076,2.252,0.226c0.669,0.151,1.27,0.356,1.801,0.615   c0.53,0.259,0.998,0.567,1.4,0.927s0.754,0.747,1.057,1.164c0.574,0.805,0.99,1.66,1.249,2.565   c0.259,0.905,0.389,1.745,0.389,2.522c0,0.546-0.051,1.088-0.151,1.627s-0.237,1.056-0.409,1.552   c-0.173,0.496-0.381,0.956-0.626,1.379c-0.244,0.424-0.517,0.78-0.818,1.067c-0.92,0.905-1.906,1.517-2.963,1.832   c-1.056,0.316-2.145,0.474-3.266,0.474h-5.087V148.151z M158.462,161.967h2.781c0.704,0,1.404-0.097,2.102-0.291   c0.696-0.194,1.324-0.514,1.886-0.959c0.561-0.446,1.017-1.038,1.369-1.778c0.352-0.74,0.527-1.663,0.527-2.769   c0-0.604-0.101-1.25-0.302-1.941c-0.201-0.689-0.531-1.325-0.991-1.907c-0.459-0.582-1.06-1.067-1.8-1.455   c-0.739-0.388-1.656-0.582-2.748-0.582h-2.824V161.967z"/>
	<path fill="#CC2327" d="M171.266,164.101v-15.95h8.6v2.134h-6.272v4.699h6.272v2.134h-6.272v4.849h6.272v2.134H171.266z"/>
	<path fill="#CC2327" d="M183.141,159.381c0,0.129,0.026,0.355,0.075,0.679c0.051,0.324,0.162,0.647,0.335,0.971   c0.172,0.323,0.431,0.61,0.775,0.861c0.345,0.252,0.812,0.378,1.401,0.378c0.732,0,1.343-0.237,1.832-0.712   c0.488-0.474,0.733-1.135,0.733-1.983c0-0.445-0.084-0.812-0.248-1.1c-0.166-0.287-0.374-0.524-0.625-0.71   s-0.528-0.338-0.831-0.453c-0.301-0.115-0.589-0.23-0.861-0.345c-0.531-0.202-0.973-0.374-1.326-0.518   c-0.352-0.144-0.649-0.28-0.894-0.41c-0.245-0.129-0.453-0.262-0.625-0.398c-0.173-0.137-0.353-0.292-0.538-0.464   c-0.374-0.358-0.647-0.808-0.82-1.347c-0.173-0.539-0.258-1.088-0.258-1.649c0-0.46,0.088-0.945,0.269-1.455   c0.18-0.51,0.456-0.977,0.83-1.401s0.837-0.776,1.39-1.056c0.553-0.28,1.211-0.421,1.973-0.421c0.661,0,1.271,0.104,1.832,0.312   c0.561,0.209,1.042,0.507,1.444,0.894c0.402,0.389,0.718,0.856,0.948,1.401c0.229,0.546,0.346,1.157,0.346,1.833h-2.328   c0-0.446-0.072-0.815-0.217-1.11c-0.144-0.294-0.325-0.531-0.549-0.711c-0.223-0.18-0.468-0.306-0.733-0.377   s-0.514-0.108-0.743-0.108c-0.345,0-0.65,0.068-0.916,0.205c-0.266,0.136-0.488,0.312-0.669,0.527   c-0.178,0.216-0.314,0.453-0.409,0.712c-0.094,0.259-0.14,0.503-0.14,0.733c0,0.388,0.079,0.708,0.237,0.959   c0.158,0.251,0.348,0.456,0.57,0.614c0.224,0.158,0.457,0.288,0.702,0.388c0.243,0.101,0.452,0.18,0.624,0.237   c0.503,0.187,1.042,0.385,1.616,0.593c0.575,0.208,1.103,0.496,1.584,0.862s0.885,0.844,1.208,1.433s0.484,1.366,0.484,2.328   c0,0.69-0.118,1.329-0.355,1.918c-0.237,0.589-0.567,1.1-0.991,1.53c-0.424,0.431-0.938,0.769-1.542,1.013   c-0.603,0.244-1.271,0.366-2.004,0.366c-0.546,0-1.109-0.093-1.691-0.28c-0.582-0.187-1.11-0.485-1.585-0.895   c-0.474-0.409-0.865-0.93-1.175-1.562c-0.309-0.632-0.464-1.394-0.464-2.285H183.141z"/>
	<path fill="#CC2327" d="M192.15,164.101v-15.95h2.328v15.95H192.15z"/>
	<path fill="#CC2327" d="M208.832,152.161c-0.172-0.187-0.385-0.402-0.636-0.646c-0.251-0.245-0.557-0.482-0.915-0.711   c-0.359-0.229-0.769-0.424-1.229-0.583c-0.46-0.158-0.985-0.237-1.574-0.237c-0.834,0-1.609,0.166-2.328,0.496   c-0.719,0.331-1.343,0.779-1.874,1.347c-0.532,0.567-0.948,1.225-1.251,1.972c-0.302,0.747-0.452,1.538-0.452,2.372   c0,0.876,0.169,1.688,0.507,2.435c0.337,0.748,0.779,1.39,1.325,1.929c0.545,0.538,1.175,0.963,1.886,1.271   c0.711,0.31,1.448,0.464,2.21,0.464c0.071,0,0.221-0.007,0.452-0.022c0.229-0.014,0.507-0.061,0.83-0.14s0.674-0.197,1.055-0.356   c0.381-0.157,0.766-0.384,1.154-0.679c0.389-0.293,0.754-0.664,1.099-1.109c0.346-0.445,0.647-0.999,0.906-1.66h-7.438v-2.133   h10.089c-0.03,1.336-0.292,2.518-0.788,3.545c-0.496,1.027-1.131,1.886-1.908,2.575c-0.774,0.69-1.651,1.214-2.628,1.574   c-0.978,0.359-1.948,0.539-2.91,0.539c-1.164,0-2.245-0.219-3.244-0.657c-0.999-0.439-1.861-1.035-2.586-1.79   c-0.726-0.754-1.297-1.627-1.714-2.618s-0.624-2.048-0.624-3.168c0-1.15,0.207-2.227,0.624-3.233   c0.417-1.005,0.992-1.886,1.725-2.641c0.733-0.754,1.596-1.351,2.587-1.789c0.991-0.438,2.061-0.657,3.211-0.657   c0.675,0,1.357,0.09,2.048,0.27c0.689,0.18,1.348,0.449,1.972,0.808c0.625,0.359,1.206,0.809,1.746,1.347   c0.538,0.539,1.003,1.168,1.391,1.886H208.832z"/>
	<path fill="#CC2327" d="M224.566,164.101l-7.889-12.329h-0.043v12.329h-2.329v-15.95h2.545l7.76,12.135h0.043v-12.135h2.328v15.95   H224.566z"/>
</g>
<g data-elvn="gaussBlur, in, 3600, 800, 10" class="elvn-layer" id="multimedia">
	<path fill="#606060" stroke="#606060" stroke-width="0.5" d="M64.421,198.572l4.641-9.417h0.64v10.071h-0.408v-9.663h-0.014h0.014   h-0.026l-4.737,9.663h-0.23l-4.75-9.663h-0.026v9.663h-0.408v-10.071h0.652L64.421,198.572z"/>
	<path fill="#606060" stroke="#606060" stroke-width="0.5" d="M71.797,189.155h0.409v6.542c0,0.245,0.003,0.473,0.006,0.681   c0.005,0.209,0.027,0.409,0.069,0.6c0.041,0.191,0.103,0.379,0.188,0.565c0.087,0.187,0.207,0.379,0.362,0.58   c0.218,0.291,0.515,0.518,0.891,0.681c0.377,0.164,0.77,0.245,1.178,0.245c0.381,0,0.76-0.082,1.136-0.245   c0.377-0.164,0.674-0.391,0.892-0.681c0.154-0.2,0.274-0.393,0.36-0.58c0.086-0.186,0.15-0.375,0.191-0.565   c0.04-0.19,0.062-0.391,0.067-0.6c0.005-0.208,0.007-0.436,0.007-0.681v-6.542h0.408v6.532c0,0.227-0.006,0.479-0.021,0.755   c-0.014,0.277-0.059,0.554-0.136,0.83c-0.077,0.277-0.197,0.546-0.36,0.81s-0.396,0.499-0.695,0.708   c-0.263,0.19-0.556,0.34-0.877,0.449c-0.323,0.108-0.656,0.163-1.001,0.163c-0.344,0-0.676-0.054-0.992-0.163   c-0.317-0.109-0.607-0.259-0.871-0.449c-0.3-0.209-0.531-0.445-0.694-0.708s-0.283-0.533-0.36-0.81   c-0.078-0.276-0.123-0.553-0.137-0.83s-0.021-0.529-0.021-0.755V189.155z"/>
	<path fill="#606060" stroke="#606060" stroke-width="0.5" d="M80.452,198.871h4.261v0.354h-4.669v-10.071h0.408V198.871z"/>
	<path fill="#606060" stroke="#606060" stroke-width="0.5" d="M90.074,189.155v0.354h-2.735v9.717H86.93v-9.717h-2.734v-0.354   H90.074z"/>
	<path fill="#606060" stroke="#606060" stroke-width="0.5" d="M91.611,199.226h-0.408v-10.071h0.408V199.226z"/>
	<path fill="#606060" stroke="#606060" stroke-width="0.5" d="M99.028,198.572l4.641-9.417h0.64v10.071h-0.409v-9.663h-0.012h0.012   h-0.026l-4.735,9.663h-0.232l-4.749-9.663h-0.027v9.663H93.72v-10.071h0.654L99.028,198.572z"/>
	<path fill="#606060" stroke="#606060" stroke-width="0.5" d="M111.942,189.155v0.354h-5.116v4.478h5.116v0.354h-5.116v4.531h5.116   v0.354h-5.524v-10.071H111.942z"/>
	<path fill="#606060" stroke="#606060" stroke-width="0.5" d="M113.862,189.155h2.844c0.789,0,1.499,0.114,2.13,0.34   s1.163,0.556,1.599,0.986c0.436,0.432,0.77,0.96,1,1.586c0.231,0.626,0.348,1.333,0.348,2.123c0,0.789-0.116,1.497-0.348,2.123   c-0.23,0.626-0.564,1.155-1,1.585c-0.436,0.431-0.968,0.76-1.599,0.986c-0.631,0.228-1.341,0.341-2.13,0.341h-2.844V189.155z    M114.271,198.871h2.436c0.726,0,1.377-0.104,1.952-0.313c0.577-0.209,1.066-0.515,1.47-0.915c0.404-0.4,0.713-0.889,0.926-1.467   s0.32-1.231,0.32-1.958c0-0.737-0.105-1.396-0.313-1.979c-0.209-0.582-0.513-1.076-0.911-1.481c-0.4-0.405-0.89-0.714-1.47-0.928   c-0.581-0.214-1.238-0.321-1.974-0.321h-2.436V198.871z"/>
	<path fill="#606060" stroke="#606060" stroke-width="0.5" d="M123.81,199.226h-0.408v-10.071h0.408V199.226z"/>
	<path fill="#606060" stroke="#606060" stroke-width="0.5" d="M125.402,199.226h-0.437l4.315-10.071h0.53l4.313,10.071h-0.435   l-1.512-3.512h-5.267L125.402,199.226z M127.09,195.36h4.912l-2.463-5.812L127.09,195.36z"/>
	<path fill="#606060" stroke="#606060" stroke-width="0.5" d="M139.446,199.226h-0.408v-10.071h0.408V199.226z"/>
	<path fill="#606060" stroke="#606060" stroke-width="0.5" d="M141.527,196.694c0.063,0.481,0.193,0.876,0.389,1.184   c0.194,0.309,0.415,0.549,0.66,0.722c0.245,0.172,0.498,0.29,0.762,0.354s0.489,0.095,0.681,0.095c0.316,0,0.628-0.057,0.933-0.17   c0.304-0.114,0.572-0.275,0.81-0.484c0.235-0.209,0.427-0.461,0.571-0.757c0.146-0.295,0.218-0.625,0.218-0.988   c0-0.463-0.088-0.842-0.266-1.137c-0.177-0.295-0.396-0.532-0.66-0.708c-0.263-0.177-0.542-0.313-0.836-0.409   c-0.295-0.095-0.565-0.174-0.811-0.238c-0.218-0.054-0.479-0.13-0.781-0.225c-0.305-0.096-0.595-0.234-0.872-0.416   c-0.277-0.182-0.511-0.425-0.7-0.73c-0.191-0.304-0.285-0.692-0.285-1.165c-0.01-0.418,0.058-0.791,0.203-1.118   c0.146-0.327,0.344-0.601,0.6-0.824c0.252-0.222,0.549-0.393,0.883-0.511c0.336-0.118,0.686-0.177,1.049-0.177   c0.299,0,0.592,0.044,0.878,0.131c0.286,0.087,0.546,0.226,0.782,0.415c0.235,0.189,0.438,0.431,0.605,0.726   s0.279,0.647,0.333,1.055h-0.407c-0.037-0.2-0.099-0.416-0.185-0.647c-0.087-0.231-0.211-0.444-0.374-0.64   c-0.163-0.194-0.379-0.358-0.646-0.49s-0.605-0.197-1.014-0.197c-0.317,0-0.617,0.052-0.898,0.156   c-0.282,0.104-0.526,0.252-0.734,0.443c-0.209,0.191-0.372,0.422-0.49,0.695c-0.118,0.273-0.177,0.573-0.177,0.899   c0,0.4,0.075,0.729,0.226,0.988c0.148,0.259,0.35,0.475,0.604,0.648c0.254,0.172,0.544,0.311,0.87,0.415   c0.327,0.104,0.663,0.202,1.008,0.293c0.081,0.027,0.2,0.059,0.354,0.096c0.155,0.036,0.325,0.095,0.511,0.177   s0.376,0.184,0.571,0.307s0.372,0.279,0.531,0.47c0.157,0.19,0.287,0.423,0.388,0.695c0.1,0.273,0.149,0.591,0.149,0.954   c0,0.418-0.082,0.8-0.245,1.145s-0.381,0.643-0.653,0.893c-0.271,0.25-0.585,0.443-0.938,0.58   c-0.354,0.136-0.717,0.204-1.089,0.204c-0.3,0-0.615-0.05-0.946-0.15c-0.331-0.101-0.635-0.262-0.911-0.483   c-0.277-0.222-0.512-0.503-0.708-0.843c-0.195-0.34-0.311-0.75-0.347-1.231H141.527z"/>
	<path fill="#606060" stroke="#606060" stroke-width="0.5" d="M151.885,194.19c0-0.753,0.136-1.45,0.407-2.089   c0.273-0.64,0.647-1.191,1.123-1.654c0.477-0.462,1.029-0.823,1.66-1.082c0.63-0.259,1.309-0.388,2.035-0.388   c0.717,0,1.392,0.129,2.027,0.388c0.635,0.259,1.19,0.62,1.667,1.082c0.476,0.463,0.851,1.014,1.123,1.654   c0.272,0.639,0.407,1.335,0.407,2.089c0,0.753-0.135,1.449-0.407,2.089s-0.647,1.19-1.123,1.653   c-0.477,0.463-1.032,0.823-1.667,1.082c-0.636,0.259-1.311,0.388-2.027,0.388c-0.727,0-1.405-0.129-2.035-0.388   c-0.631-0.258-1.184-0.619-1.66-1.082c-0.476-0.463-0.85-1.014-1.123-1.653C152.021,195.64,151.885,194.943,151.885,194.19z    M152.292,194.19c0,0.7,0.125,1.346,0.374,1.938c0.25,0.591,0.593,1.104,1.028,1.535c0.437,0.432,0.946,0.771,1.531,1.017   c0.585,0.246,1.213,0.369,1.885,0.369c0.662,0,1.286-0.123,1.87-0.369c0.586-0.245,1.097-0.584,1.532-1.017   c0.435-0.432,0.78-0.944,1.034-1.535c0.253-0.591,0.381-1.237,0.381-1.938c0-0.701-0.128-1.347-0.381-1.938   c-0.254-0.591-0.6-1.103-1.034-1.535c-0.436-0.432-0.946-0.771-1.532-1.017c-0.584-0.246-1.208-0.368-1.87-0.368   c-0.672,0-1.3,0.123-1.885,0.368s-1.095,0.585-1.531,1.017c-0.436,0.432-0.778,0.944-1.028,1.535   C152.417,192.844,152.292,193.489,152.292,194.19z"/>
	<path fill="#606060" stroke="#606060" stroke-width="0.5" d="M163.94,189.155h0.409v6.542c0,0.245,0.003,0.473,0.008,0.681   c0.003,0.209,0.027,0.409,0.067,0.6c0.041,0.191,0.104,0.379,0.189,0.565c0.088,0.187,0.207,0.379,0.362,0.58   c0.217,0.291,0.514,0.518,0.892,0.681c0.375,0.164,0.769,0.245,1.176,0.245c0.382,0,0.76-0.082,1.137-0.245   c0.376-0.164,0.673-0.391,0.892-0.681c0.153-0.2,0.274-0.393,0.36-0.58c0.086-0.186,0.149-0.375,0.19-0.565   c0.041-0.19,0.063-0.391,0.067-0.6c0.005-0.208,0.008-0.436,0.008-0.681v-6.542h0.408v6.532c0,0.227-0.007,0.479-0.021,0.755   s-0.06,0.554-0.136,0.83c-0.077,0.277-0.197,0.546-0.36,0.81s-0.396,0.499-0.695,0.708c-0.263,0.19-0.556,0.34-0.877,0.449   c-0.322,0.108-0.655,0.163-1,0.163s-0.677-0.054-0.994-0.163c-0.316-0.109-0.607-0.259-0.871-0.449   c-0.299-0.209-0.531-0.445-0.693-0.708c-0.163-0.263-0.284-0.533-0.36-0.81c-0.077-0.276-0.122-0.553-0.136-0.83   c-0.015-0.277-0.022-0.529-0.022-0.755V189.155z"/>
	<path fill="#606060" stroke="#606060" stroke-width="0.5" d="M174.353,189.155c0.39,0,0.726,0.01,1.007,0.027   c0.282,0.019,0.526,0.043,0.735,0.075c0.208,0.032,0.386,0.075,0.53,0.129c0.146,0.054,0.281,0.118,0.408,0.19   c0.2,0.1,0.389,0.241,0.572,0.422c0.181,0.182,0.335,0.392,0.462,0.633c0.127,0.24,0.229,0.499,0.307,0.776   c0.076,0.277,0.115,0.56,0.115,0.85c0.009,0.318-0.036,0.658-0.137,1.021c-0.099,0.363-0.267,0.703-0.503,1.021   c-0.235,0.317-0.547,0.583-0.933,0.796c-0.385,0.213-0.85,0.32-1.395,0.32l-0.395,0.014l2.708,3.797h-0.517l-2.953-4.164h0.626   c0.235,0,0.453-0.007,0.653-0.021c0.199-0.014,0.388-0.044,0.564-0.089c0.177-0.045,0.349-0.111,0.518-0.197   c0.167-0.087,0.333-0.198,0.496-0.334c0.318-0.337,0.539-0.68,0.667-1.031c0.126-0.35,0.19-0.725,0.19-1.125   c0-0.436-0.103-0.873-0.306-1.309c-0.204-0.437-0.502-0.782-0.892-1.037c-0.154-0.1-0.317-0.178-0.49-0.232   c-0.172-0.054-0.36-0.096-0.565-0.123c-0.203-0.028-0.426-0.043-0.666-0.048c-0.24-0.004-0.511-0.007-0.81-0.007h-1.892v9.717   h-0.407v-10.071H174.353z"/>
	<path fill="#606060" stroke="#606060" stroke-width="0.5" d="M185.702,189.155c0.299,0,0.566,0.01,0.803,0.027   c0.235,0.019,0.454,0.047,0.652,0.088c0.199,0.041,0.386,0.102,0.559,0.184c0.172,0.082,0.341,0.182,0.504,0.3   c0.299,0.218,0.544,0.533,0.734,0.945c0.19,0.413,0.286,0.851,0.286,1.313c0,0.463-0.096,0.9-0.286,1.313   c-0.19,0.413-0.436,0.728-0.734,0.946c-0.163,0.127-0.334,0.229-0.511,0.306c-0.178,0.077-0.365,0.136-0.564,0.177   s-0.418,0.071-0.653,0.088c-0.237,0.018-0.499,0.027-0.789,0.027h-1.934v4.355h-0.407v-10.071H185.702z M183.769,194.517h1.946   c0.282,0,0.534-0.009,0.756-0.027c0.223-0.019,0.422-0.05,0.599-0.096s0.34-0.103,0.49-0.171c0.149-0.068,0.297-0.157,0.441-0.267   c0.245-0.183,0.445-0.454,0.6-0.815c0.153-0.36,0.23-0.731,0.23-1.115c0-0.401-0.077-0.782-0.23-1.143   c-0.154-0.36-0.354-0.632-0.6-0.814c-0.145-0.11-0.292-0.199-0.441-0.267c-0.15-0.068-0.313-0.125-0.49-0.171   s-0.376-0.077-0.599-0.096c-0.222-0.018-0.474-0.027-0.756-0.027h-1.946V194.517z"/>
	<path fill="#606060" stroke="#606060" stroke-width="0.5" d="M188.573,199.226h-0.436l4.313-10.071h0.531l4.314,10.071h-0.437   l-1.51-3.512h-5.267L188.573,199.226z M190.261,195.36h4.912l-2.463-5.812L190.261,195.36z"/>
	<path fill="#606060" stroke="#606060" stroke-width="0.5" d="M198.412,196.694c0.062,0.481,0.192,0.876,0.388,1.184   c0.195,0.309,0.416,0.549,0.661,0.722c0.244,0.172,0.497,0.29,0.762,0.354c0.263,0.063,0.489,0.095,0.681,0.095   c0.316,0,0.627-0.057,0.933-0.17c0.302-0.114,0.572-0.275,0.808-0.484c0.236-0.209,0.427-0.461,0.572-0.757   c0.145-0.295,0.219-0.625,0.219-0.988c0-0.463-0.089-0.842-0.267-1.137c-0.177-0.295-0.397-0.532-0.659-0.708   c-0.264-0.177-0.543-0.313-0.838-0.409c-0.295-0.095-0.563-0.174-0.81-0.238c-0.217-0.054-0.479-0.13-0.782-0.225   c-0.305-0.096-0.594-0.234-0.87-0.416c-0.277-0.182-0.511-0.425-0.702-0.73c-0.189-0.304-0.285-0.692-0.285-1.165   c-0.009-0.418,0.059-0.791,0.203-1.118c0.146-0.327,0.346-0.601,0.6-0.824c0.254-0.222,0.55-0.393,0.884-0.511   c0.336-0.118,0.686-0.177,1.049-0.177c0.3,0,0.592,0.044,0.879,0.131c0.285,0.087,0.546,0.226,0.781,0.415   c0.235,0.189,0.438,0.431,0.606,0.726c0.167,0.295,0.278,0.647,0.333,1.055h-0.407c-0.038-0.2-0.099-0.416-0.185-0.647   c-0.087-0.231-0.211-0.444-0.374-0.64c-0.163-0.194-0.38-0.358-0.647-0.49s-0.605-0.197-1.014-0.197   c-0.317,0-0.616,0.052-0.898,0.156c-0.281,0.104-0.526,0.252-0.734,0.443s-0.372,0.422-0.49,0.695   c-0.118,0.273-0.177,0.573-0.177,0.899c0,0.4,0.075,0.729,0.225,0.988c0.15,0.259,0.352,0.475,0.606,0.648   c0.253,0.172,0.544,0.311,0.869,0.415c0.327,0.104,0.663,0.202,1.008,0.293c0.081,0.027,0.2,0.059,0.354,0.096   c0.154,0.036,0.324,0.095,0.511,0.177c0.186,0.082,0.377,0.184,0.571,0.307c0.195,0.123,0.373,0.279,0.531,0.47   c0.158,0.19,0.288,0.423,0.389,0.695c0.099,0.273,0.149,0.591,0.149,0.954c0,0.418-0.083,0.8-0.246,1.145   c-0.162,0.345-0.381,0.643-0.653,0.893c-0.271,0.25-0.585,0.443-0.938,0.58c-0.354,0.136-0.718,0.204-1.09,0.204   c-0.3,0-0.614-0.05-0.944-0.15c-0.332-0.101-0.637-0.262-0.914-0.483c-0.275-0.222-0.512-0.503-0.707-0.843   c-0.194-0.34-0.311-0.75-0.347-1.231H198.412z"/>
	<path fill="#606060" stroke="#606060" stroke-width="0.5" d="M205.462,196.694c0.062,0.481,0.192,0.876,0.388,1.184   c0.194,0.309,0.415,0.549,0.66,0.722c0.244,0.172,0.499,0.29,0.762,0.354c0.264,0.063,0.49,0.095,0.68,0.095   c0.318,0,0.629-0.057,0.933-0.17c0.305-0.114,0.574-0.275,0.81-0.484s0.427-0.461,0.572-0.757c0.145-0.295,0.218-0.625,0.218-0.988   c0-0.463-0.089-0.842-0.266-1.137c-0.178-0.295-0.396-0.532-0.66-0.708c-0.263-0.177-0.542-0.313-0.837-0.409   c-0.294-0.095-0.564-0.174-0.81-0.238c-0.218-0.054-0.479-0.13-0.782-0.225c-0.306-0.096-0.595-0.234-0.872-0.416   c-0.275-0.182-0.51-0.425-0.699-0.73c-0.191-0.304-0.287-0.692-0.287-1.165c-0.008-0.418,0.06-0.791,0.205-1.118   c0.145-0.327,0.344-0.601,0.598-0.824c0.255-0.222,0.549-0.393,0.886-0.511c0.335-0.118,0.684-0.177,1.048-0.177   c0.299,0,0.592,0.044,0.877,0.131c0.286,0.087,0.547,0.226,0.783,0.415c0.236,0.189,0.438,0.431,0.605,0.726   c0.167,0.295,0.278,0.647,0.333,1.055h-0.408c-0.036-0.2-0.098-0.416-0.184-0.647s-0.211-0.444-0.374-0.64   c-0.163-0.194-0.379-0.358-0.646-0.49s-0.605-0.197-1.015-0.197c-0.316,0-0.616,0.052-0.897,0.156   c-0.282,0.104-0.526,0.252-0.735,0.443c-0.208,0.191-0.372,0.422-0.489,0.695c-0.119,0.273-0.177,0.573-0.177,0.899   c0,0.4,0.074,0.729,0.224,0.988c0.15,0.259,0.352,0.475,0.606,0.648c0.253,0.172,0.544,0.311,0.87,0.415   c0.327,0.104,0.663,0.202,1.008,0.293c0.081,0.027,0.199,0.059,0.353,0.096c0.155,0.036,0.325,0.095,0.511,0.177   c0.187,0.082,0.377,0.184,0.572,0.307c0.194,0.123,0.372,0.279,0.53,0.47c0.158,0.19,0.288,0.423,0.389,0.695   c0.101,0.273,0.149,0.591,0.149,0.954c0,0.418-0.082,0.8-0.245,1.145s-0.381,0.643-0.653,0.893c-0.272,0.25-0.585,0.443-0.939,0.58   c-0.354,0.136-0.716,0.204-1.088,0.204c-0.3,0-0.615-0.05-0.946-0.15c-0.331-0.101-0.635-0.262-0.911-0.483   c-0.277-0.222-0.513-0.503-0.708-0.843c-0.195-0.34-0.311-0.75-0.347-1.231H205.462z"/>
	<path fill="#606060" stroke="#606060" stroke-width="0.5" d="M212.946,199.226h-0.408v-10.071h0.408V199.226z"/>
	<path fill="#606060" stroke="#606060" stroke-width="0.5" d="M214.565,194.19c0-0.753,0.137-1.45,0.409-2.089   c0.271-0.64,0.645-1.191,1.122-1.654c0.477-0.462,1.03-0.823,1.661-1.082c0.63-0.259,1.308-0.388,2.034-0.388   c0.716,0,1.393,0.129,2.027,0.388s1.191,0.62,1.666,1.082c0.478,0.463,0.852,1.014,1.124,1.654   c0.272,0.639,0.408,1.335,0.408,2.089c0,0.753-0.136,1.449-0.408,2.089s-0.646,1.19-1.124,1.653   c-0.475,0.463-1.031,0.823-1.666,1.082c-0.635,0.259-1.312,0.388-2.027,0.388c-0.727,0-1.404-0.129-2.034-0.388   c-0.631-0.258-1.185-0.619-1.661-1.082c-0.478-0.463-0.851-1.014-1.122-1.653C214.702,195.64,214.565,194.943,214.565,194.19z    M214.975,194.19c0,0.7,0.124,1.346,0.373,1.938c0.25,0.591,0.592,1.104,1.028,1.535c0.435,0.432,0.945,0.771,1.53,1.017   c0.585,0.246,1.214,0.369,1.886,0.369c0.662,0,1.285-0.123,1.87-0.369c0.585-0.245,1.096-0.584,1.531-1.017   c0.436-0.432,0.781-0.944,1.034-1.535c0.255-0.591,0.382-1.237,0.382-1.938c0-0.701-0.127-1.347-0.382-1.938   c-0.253-0.591-0.599-1.103-1.034-1.535s-0.946-0.771-1.531-1.017s-1.208-0.368-1.87-0.368c-0.672,0-1.301,0.123-1.886,0.368   s-1.096,0.585-1.53,1.017c-0.437,0.432-0.778,0.944-1.028,1.535C215.099,192.844,214.975,193.489,214.975,194.19z"/>
	<path fill="#606060" stroke="#606060" stroke-width="0.5" d="M234.148,198.681h0.027v-9.526h0.409v10.071h-0.518l-6.996-9.663   h-0.026v9.663h-0.408v-10.071h0.612L234.148,198.681z"/>
</g>
<path d="M219.028,109.998c-8.521,0-15.452-6.933-15.452-15.455c0-8.521,6.932-15.452,15.452-15.452  c8.522,0,15.456,6.932,15.456,15.452C234.484,103.065,227.551,109.998,219.028,109.998z M219.028,85.399  c-5.043,0-9.143,4.102-9.143,9.144c0,5.043,4.1,9.147,9.143,9.147s9.147-4.104,9.147-9.147  C228.176,89.501,224.071,85.399,219.028,85.399z" fill="#17498E" id="circulo" class="elvn-layer" data-elvn="wheelB, in, 4600, 1250, backout"/>

</svg>
